<!-- Generated by IcoMoon.io -->
<svg version="1.1" xmlns="http://www.w3.org/2000/svg" width="56" height="32" viewBox="0 0 56 32">
<title>customer1</title>
<path fill="#afb1b8" d="M19.934 4.046l3.676 3.48-6.824-0.004v16.885h17.836v-6.456l3.672 3.476v-17.382h-18.361zM34.462 17.543l-10.424-9.868h10.424v9.868zM31.225 21.938h-11.616v-11.356h0.821v10.587h10.795v0.769zM22.352 26.656h0.359l-0.625 1.178v0.686h-0.325v-0.686l-0.626-1.178h0.36l0.429 0.884 0.429-0.884zM22.891 28.52l0.151-0.434h0.722l0.152 0.434h0.338l-0.706-1.865h-0.291l-0.704 1.865h0.337zM23.404 27.051l0.27 0.774h-0.541l0.27-0.774zM25.112 27.78c0.047-0.073 0.14-0.158 0.278-0.257-0.073-0.091-0.123-0.169-0.152-0.233s-0.042-0.126-0.042-0.186c0-0.146 0.044-0.261 0.133-0.346s0.208-0.128 0.359-0.128c0.136 0 0.247 0.040 0.333 0.12s0.131 0.178 0.131 0.296c0 0.078-0.020 0.149-0.059 0.215s-0.104 0.13-0.193 0.195l-0.127 0.092 0.36 0.425c0.052-0.102 0.078-0.216 0.078-0.342h0.27c0 0.23-0.054 0.418-0.161 0.565l0.274 0.324h-0.361l-0.105-0.124c-0.133 0.1-0.292 0.15-0.476 0.15s-0.332-0.049-0.443-0.146c-0.11-0.098-0.165-0.226-0.165-0.383 0-0.086 0.023-0.165 0.070-0.237zM25.954 28.192l-0.407-0.48-0.040 0.028c-0.102 0.078-0.154 0.166-0.154 0.266 0 0.086 0.028 0.156 0.083 0.21s0.13 0.081 0.223 0.081c0.105 0 0.203-0.035 0.295-0.105zM25.619 27.366l0.142-0.097 0.040-0.032c0.053-0.047 0.079-0.107 0.079-0.181 0-0.049-0.018-0.090-0.055-0.124s-0.083-0.052-0.14-0.052c-0.061 0-0.109 0.020-0.145 0.061s-0.054 0.093-0.054 0.155c0 0.072 0.044 0.162 0.132 0.27zM28.655 28.38c-0.128 0.111-0.298 0.166-0.511 0.166-0.149 0-0.28-0.035-0.393-0.105s-0.2-0.171-0.261-0.301c-0.061-0.13-0.094-0.28-0.096-0.452v-0.174c0-0.176 0.031-0.331 0.093-0.465s0.152-0.237 0.268-0.31c0.117-0.073 0.252-0.109 0.405-0.109 0.206 0 0.371 0.056 0.497 0.168s0.198 0.27 0.219 0.474h-0.323c-0.015-0.134-0.055-0.231-0.118-0.289s-0.154-0.090-0.275-0.090c-0.141 0-0.249 0.052-0.325 0.155s-0.114 0.253-0.115 0.452v0.165c0 0.201 0.036 0.355 0.108 0.461s0.178 0.159 0.318 0.159c0.127 0 0.223-0.029 0.287-0.086s0.105-0.152 0.122-0.286h0.323c-0.019 0.199-0.092 0.354-0.22 0.466zM30.559 28.118c0.063-0.138 0.095-0.299 0.095-0.482v-0.104c-0.001-0.182-0.033-0.341-0.097-0.478s-0.155-0.243-0.273-0.315c-0.117-0.073-0.251-0.11-0.403-0.11s-0.287 0.037-0.405 0.111c-0.117 0.073-0.208 0.18-0.273 0.319s-0.096 0.3-0.096 0.482v0.105c0.001 0.178 0.033 0.336 0.097 0.473s0.156 0.242 0.274 0.316c0.119 0.073 0.254 0.11 0.405 0.11 0.153 0 0.288-0.037 0.405-0.11s0.208-0.18 0.272-0.318zM30.212 27.064c-0.078-0.11-0.188-0.165-0.332-0.165-0.14 0-0.25 0.055-0.329 0.165s-0.119 0.264-0.12 0.465v0.108c0 0.205 0.040 0.363 0.119 0.475s0.191 0.168 0.333 0.168c0.143 0 0.254-0.055 0.33-0.164s0.117-0.269 0.117-0.479v-0.097c0-0.207-0.039-0.365-0.118-0.475z"></path>
</svg>
